<?xml version="1.0" encoding="utf-8"?>
<!-- Generator: Adobe Illustrator 18.1.0, SVG Export Plug-In . SVG Version: 6.00 Build 0)  -->
<svg version="1.1" id="Capa_1" xmlns="http://www.w3.org/2000/svg" xmlns:xlink="http://www.w3.org/1999/xlink" x="0px" y="0px"
	 viewBox="-86 177.5 438.5 438.5" enable-background="new -86 177.5 438.5 438.5" xml:space="preserve">
<g>
	<g id="XMLID_1_">
		<g>
			<path fill="#FFFFFF" d="M323.1,292c19.6,33.6,29.4,70.3,29.4,110c0,47.8-13.9,90.8-41.8,128.9c-27.9,38.2-63.9,64.6-108.1,79.2
				c-5.1,1-8.9,0.3-11.3-2c-2.4-2.3-3.6-5.1-3.6-8.6v-60.2c0-18.5-4.9-32-14.8-40.5c10.8-1.1,20.6-2.9,29.3-5.2
				c8.7-2.3,17.6-6,26.8-11.1c9.2-5.1,16.9-11.5,23.1-19c6.2-7.5,11.2-17.5,15.1-30s5.9-26.8,5.9-43c0-23-7.5-42.6-22.6-58.8
				c7-17.3,6.3-36.7-2.3-58.2c-5.3-1.7-13.1-0.7-23.1,3.1c-10.1,3.8-18.8,8-26.3,12.6l-10.9,6.9c-17.7-4.9-36-7.4-54.8-7.4
				s-37.1,2.5-54.8,7.4c-3-2.1-7.1-4.7-12.1-7.7c-5-3-13-6.7-23.8-11s-19-5.6-24.6-3.9c-8.4,21.5-9,40.9-2,58.2
				C0.9,348-6.6,367.6-6.6,390.7c0,16.2,2,30.5,5.9,42.8s8.9,22.4,15,30c6.1,7.6,13.7,14,23,19.1c9.2,5.1,18.2,8.8,26.8,11.1
				c8.7,2.3,18.4,4,29.3,5.1c-7.6,6.8-12.3,16.6-14,29.4c-4,1.9-8.3,3.3-12.8,4.3c-4.6,1-10,1.4-16.3,1.4s-12.5-2-18.7-6.1
				c-6.2-4.1-11.5-10-15.8-17.9c-3.6-6.1-8.2-11-13.9-14.8s-10.3-6.1-14.1-6.9l-5.7-0.8c-4,0-6.8,0.4-8.3,1.3c-1.5,0.9-2,2-1.4,3.3
				c0.6,1.3,1.4,2.7,2.6,4c1.1,1.3,2.4,2.5,3.7,3.4l2,1.4c4.2,1.9,8.3,5.5,12.4,10.8s7.1,10.2,9,14.6l2.9,6.6
				c2.5,7.2,6.7,13.1,12.6,17.6c5.9,4.5,12.3,7.3,19.1,8.6c6.9,1.2,13.5,1.9,19.8,2c6.4,0.1,11.7-0.2,15.8-1l6.6-1.1
				c0,7.2,0,15.7,0.1,25.4C79,594,79,599.1,79,599.7c0,3.4-1.2,6.3-3.7,8.6c-2.5,2.3-6.3,2.9-11.4,2C19.7,595.6-16.3,569.2-44.2,531
				C-72.1,492.8-86,449.9-86,402.1c0-39.8,9.8-76.5,29.4-110.1c19.6-33.6,46.2-60.2,79.8-79.8c33.6-19.6,70.3-29.4,110.1-29.4
				c39.8,0,76.5,9.8,110.1,29.4C276.9,231.8,303.5,258.4,323.1,292z"/>
		</g>
		<g>
		</g>
	</g>
</g>
</svg>
