<?xml version="1.0" encoding="utf-8"?>
<!-- Generator: Adobe Illustrator 18.1.0, SVG Export Plug-In . SVG Version: 6.00 Build 0)  -->
<svg version="1.1" id="レイヤー_1" xmlns="http://www.w3.org/2000/svg" xmlns:xlink="http://www.w3.org/1999/xlink" x="0px"
	 y="0px" viewBox="928 -854 2467 2500" enable-background="new 928 -854 2467 2500" xml:space="preserve">
<path fill="#FFFFFF" d="M934,337.4c26-19.5,61.8-14.6,107.4,14.6V-853.8h2231.1V352.1c26-19.5,53.7-29.3,83-29.3
	c29.3,0,42.3,11.4,39.1,34.2c-9.8,29.3-26.8,60.2-51.3,92.8c-24.4,32.5-48.8,60.2-73.2,83c-24.4,22.8-60.2,48-107.4,75.7
	c-47.2,27.7-82.2,48-105,61c-22.8,13-61,32.5-114.7,58.6c-53.7,26-85.4,40.7-95.2,43.9c42.3,136.7,57,271.8,43.9,405.2
	c-16.3,126.9-62.7,234.3-139.1,322.2c-76.5,87.9-176.6,133.4-300.2,136.7c-94.4,0-169.2-39.1-224.6-117.2
	c-16.3-26-24.4-57-24.4-92.8V933c-9.8,0-26-4.1-48.8-12.2c-22.8-8.1-35.8-12.2-39.1-12.2v527.3c0,58.6-26,108.2-78.1,148.9
	c-52.1,40.7-109,61-170.9,61c-120.4,0-219.7-45.6-297.8-136.7c-78.1-91.1-125.3-200.2-141.6-327.1c-13-136.7,1.6-270.1,43.9-400.3
	c-198.5-87.9-369.4-203.4-512.6-346.6C929.1,383,921,350.4,934,337.4z M1168.3,435.1c13,6.5,33.4,17.1,61,31.7
	c27.7,14.6,49.6,25.2,65.9,31.7L3043,479c48.8-22.8,81.4-39.1,97.6-48.8V-722H1168.3L1168.3,435.1L1168.3,435.1z M1524.7,186.1
	c0-81.4,29.3-151.3,87.9-209.9c58.6-58.6,128.6-87.9,209.9-87.9c81.4,0,150.5,29.3,207.5,87.9c57,58.6,85.4,128.6,85.4,209.9
	c0,81.4-28.5,150.5-85.4,207.5c-57,57-126.1,85.4-207.5,85.4c-81.4,0-151.3-28.5-209.9-85.4C1554,336.6,1524.7,267.4,1524.7,186.1
	L1524.7,186.1z M2222.8,186.1c0-81.4,29.3-151.3,87.9-209.9c58.6-58.6,128.6-87.9,209.9-87.9s150.5,29.3,207.5,87.9
	c57,58.6,85.4,128.6,85.4,209.9c0,81.4-28.5,150.5-85.4,207.5c-57,57-126.1,85.4-207.5,85.4s-151.3-28.5-209.9-85.4
	C2252.1,336.6,2222.8,267.4,2222.8,186.1L2222.8,186.1z"/>
</svg>
